<svg width="64" height="64" viewBox="0 0 64 64" fill="none" xmlns="http://www.w3.org/2000/svg">
  <path d="M49.2891 44.7129C47.5922 45.1185 45.8212 45.3333 44 45.3333C31.4815 45.3333 21.3333 35.1851 21.3333 22.6667C21.3333 21.3774 21.441 20.1133 21.6478 18.8828C21.5512 18.9756 21.4515 19.0611 21.3465 19.1408C20.5982 19.7089 19.6663 19.9197 17.8024 20.3415L16.1054 20.7254C9.54628 22.2095 6.26671 22.9515 5.48645 25.4606C4.70619 27.9697 6.94199 30.5842 11.4136 35.8131L12.5704 37.1659C13.8411 38.6518 14.4765 39.3948 14.7623 40.3139C15.0481 41.233 14.9521 42.2243 14.76 44.2068L14.5851 46.0117C13.909 52.9883 13.571 56.4765 15.6137 58.0272C17.6565 59.5779 20.7271 58.1641 26.8684 55.3365L28.4573 54.6049C30.2025 53.8014 31.0751 53.3996 32 53.3996C32.9249 53.3996 33.7975 53.8013 35.5427 54.6049L37.1315 55.3364C43.2729 58.1641 46.3435 59.5779 48.3863 58.0272C50.429 56.4765 50.091 52.9882 49.4149 46.0117L49.2891 44.7129Z" fill="#737373" />
  <path opacity="0.5" d="M24.4084 14.4223L23.5346 15.99C22.5747 17.7118 22.0948 18.5728 21.3465 19.1408C21.4515 19.0611 21.5512 18.9756 21.6477 18.8828C21.441 20.1133 21.3333 21.3774 21.3333 22.6667C21.3333 35.1851 31.4815 45.3334 44 45.3334C45.8212 45.3334 47.5922 45.1186 49.2891 44.713L49.24 44.2068C49.0479 42.2243 48.9519 41.2331 49.2377 40.3139C49.5235 39.3948 50.1589 38.6518 51.4295 37.1659L52.5864 35.8131C57.058 30.5842 59.2938 27.9697 58.5135 25.4606C57.7333 22.9515 54.4537 22.2095 47.8946 20.7254L46.1976 20.3415C44.3337 19.9197 43.4018 19.7089 42.6535 19.1408C41.9052 18.5728 41.4253 17.7118 40.4654 15.99L39.5916 14.4223C36.2138 8.36301 34.525 5.33334 32 5.33334C29.475 5.33334 27.7862 8.36302 24.4084 14.4223Z" fill="#737373" />
</svg>