<svg width="64" height="64" viewBox="0 0 64 64" fill="none" xmlns="http://www.w3.org/2000/svg">
  <path d="M30.8806 12.7361C32.7332 8.01376 33.6595 5.65258 35.5968 5.3615C37.534 5.07042 39.1991 7.04221 42.5294 10.9858L43.391 12.006C44.3374 13.1267 44.8105 13.687 45.4539 14.007C46.0973 14.3269 46.838 14.3703 48.3195 14.457L49.6682 14.5359C54.8815 14.841 57.4881 14.9935 58.3927 16.6978C59.2972 18.4021 57.9007 20.5294 55.1076 24.7841L54.385 25.8848C53.5913 27.0939 53.1944 27.6984 53.0872 28.3886C52.98 29.0788 53.1745 29.7766 53.5637 31.1721L53.9179 32.4426C55.2873 37.3535 55.972 39.809 54.5938 41.1534C53.2157 42.4978 50.6874 41.8407 45.6309 40.5267L44.3227 40.1867C42.8858 39.8133 42.1673 39.6266 41.4577 39.7332C40.7481 39.8398 40.1276 40.2277 38.8866 41.0035L37.7569 41.7098C33.3899 44.4398 31.2064 45.8048 29.4501 44.9314C27.6938 44.058 27.5278 41.5246 27.1958 36.4578L27.1099 35.147C27.0155 33.7071 26.9684 32.9872 26.637 32.3629C26.3056 31.7386 25.7276 31.2806 24.5715 30.3645L23.519 29.5305C19.4507 26.3068 17.4166 24.695 17.7093 22.8108C18.0019 20.9266 20.4276 20.0179 25.279 18.2005L26.5341 17.7304C27.9127 17.2139 28.602 16.9557 29.1068 16.4632C29.6116 15.9708 29.8749 15.2998 30.4013 13.9578L30.8806 12.7361Z" fill="#C2867A" />
  <g opacity="0.5">
    <path d="M14.16 25.5797C7.66111 31.7891 3.4 42.1478 6.21665 58.6661C8.73074 51.7232 15.6193 45.9742 23.7658 42.5398C23.4816 40.9593 23.3554 39.0294 23.2225 36.9945L23.1185 35.4075C23.0943 35.0383 23.0759 34.7582 23.0562 34.5172C23.048 34.4172 23.0403 34.3333 23.0331 34.2626C22.9712 34.2096 22.8958 34.1465 22.8031 34.0707C22.6099 33.9128 22.3834 33.7331 22.0874 33.4986L20.8202 32.4945C18.9719 31.0304 17.2502 29.6666 16.0665 28.4092C15.3915 27.6923 14.6367 26.7468 14.16 25.5797Z" fill="#C2867A" />
    <path d="M27.591 41.1273C27.5772 41.0275 27.5639 40.9257 27.551 40.8219L27.7006 41.0924C27.6641 41.104 27.6275 41.1156 27.591 41.1273Z" fill="#C2867A" />
  </g>
</svg>