<svg width="64" height="64" viewBox="0 0 64 64" fill="none" xmlns="http://www.w3.org/2000/svg">
  <path d="M13.0443 25.6382C13.0443 24.5652 13.9073 23.6953 14.972 23.6953H25.2531C26.3178 23.6953 27.1808 24.5652 27.1808 25.6382C27.1808 26.7112 26.3178 27.581 25.2531 27.581H14.972C13.9073 27.581 13.0443 26.7112 13.0443 25.6382Z" fill="#C2867A" />
  <path fill-rule="evenodd" clip-rule="evenodd" d="M56.5025 26.6767C56.3364 26.6665 56.1557 26.6666 55.9683 26.6667L55.9215 26.6667H48.5731C42.5161 26.6667 37.3333 31.2962 37.3333 37.3333C37.3333 43.3705 42.5161 48 48.5731 48H55.9215L55.9683 48C56.1557 48.0001 56.3364 48.0001 56.5025 47.9899C58.9628 47.8391 61.1386 45.9696 61.3215 43.3584C61.3335 43.1872 61.3334 43.0027 61.3333 42.8316L61.3333 42.7852V31.8815L61.3333 31.8351C61.3334 31.664 61.3335 31.4794 61.3215 31.3082C61.1386 28.697 58.9628 26.8276 56.5025 26.6767ZM47.9216 40.1777C49.481 40.1777 50.7451 38.9042 50.7451 37.3333C50.7451 35.7624 49.481 34.4889 47.9216 34.4889C46.3622 34.4889 45.098 35.7624 45.098 37.3333C45.098 38.9042 46.3622 40.1777 47.9216 40.1777Z" fill="#C2867A" />
  <path opacity="0.5" d="M56.3717 26.6707C56.3717 23.5224 56.2573 20.1453 54.2447 17.7242C54.0505 17.4905 53.8436 17.2636 53.6234 17.0433C51.6277 15.0477 49.0972 14.162 45.9707 13.7417C42.9328 13.3333 39.0512 13.3333 34.1505 13.3333H28.5162C23.6156 13.3333 19.7338 13.3333 16.696 13.7417C13.5695 14.162 11.039 15.0477 9.04333 17.0433C7.04769 19.039 6.16205 21.5695 5.74171 24.696C5.33327 27.7338 5.3333 31.6155 5.33334 36.5162V36.8171C5.3333 41.7178 5.33327 45.5995 5.74171 48.6374C6.16205 51.7639 7.04769 54.2944 9.04333 56.29C11.039 58.2857 13.5695 59.1713 16.696 59.5917C19.7338 60.0001 23.6155 60.0001 28.5161 60H34.1504C39.0511 60.0001 42.9329 60.0001 45.9707 59.5917C49.0972 59.1713 51.6277 58.2857 53.6234 56.29C54.1687 55.7447 54.6319 55.1584 55.0256 54.5295C56.2269 52.611 56.3718 50.2595 56.3718 47.996C56.2432 48.0001 56.1077 48.0001 55.9684 48L48.5732 48C42.5161 48 37.3333 43.3705 37.3333 37.3333C37.3333 31.2962 42.5161 26.6667 48.5732 26.6667L55.9683 26.6667C56.1076 26.6666 56.2432 26.6666 56.3717 26.6707Z" fill="#C2867A" />
  <path d="M26.9372 6.85898L21.3333 10.6468L16.7112 13.7397C19.7469 13.3333 23.6238 13.3333 28.5162 13.3333H34.1505C39.0512 13.3333 42.9328 13.3333 45.9707 13.7417C46.5818 13.8239 47.1701 13.9238 47.7361 14.0463L42.6667 10.6667L37.0333 6.85898C34.0238 4.8248 29.9467 4.8248 26.9372 6.85898Z" fill="#C2867A" />
</svg>