<svg width="64" height="64" viewBox="0 0 64 64" fill="none" xmlns="http://www.w3.org/2000/svg">
  <path opacity="0.5" d="M5.33333 32C5.33333 19.4292 5.33333 13.1438 9.23857 9.23859C13.1438 5.33334 19.4292 5.33334 32 5.33334C44.5708 5.33334 50.8562 5.33334 54.7614 9.23859C58.6667 13.1438 58.6667 19.4292 58.6667 32C58.6667 44.5708 58.6667 50.8562 54.7614 54.7614C50.8562 58.6667 44.5708 58.6667 32 58.6667C19.4292 58.6667 13.1438 58.6667 9.23857 54.7614C5.33333 50.8562 5.33333 44.5708 5.33333 32Z" fill="#C2867A" />
  <path d="M46.8698 27.9471C47.577 27.0985 47.4623 25.8374 46.6138 25.1303C45.7652 24.4231 44.5041 24.5378 43.7969 25.3863L39.0052 31.1364C38.0165 32.3229 37.4093 33.044 36.909 33.4958C36.677 33.7052 36.5394 33.7887 36.4735 33.8206C36.4601 33.8271 36.4505 33.831 36.4445 33.8333C36.4445 33.8333 36.4331 33.8288 36.4241 33.8247L36.4155 33.8206C36.3496 33.7887 36.212 33.7052 35.98 33.4958C35.4797 33.044 34.8725 32.3229 33.8838 31.1364L33.104 30.2007C32.2281 29.1494 31.4385 28.2016 30.7009 27.5356C29.8984 26.8109 28.8876 26.1655 27.5556 26.1655C26.2236 26.1655 25.2128 26.8109 24.4103 27.5356C23.6727 28.2016 22.8831 29.1494 22.0072 30.2007L17.1303 36.053C16.4232 36.9016 16.5378 38.1627 17.3864 38.8698C18.2349 39.5769 19.496 39.4623 20.2032 38.6137L24.9949 32.8637C25.9837 31.6772 26.5909 30.956 27.0911 30.5043C27.3231 30.2949 27.4607 30.2114 27.5266 30.1794C27.5337 30.176 27.5397 30.1733 27.5447 30.1712L27.5556 30.1668C27.5616 30.1691 27.5712 30.173 27.5846 30.1794C27.6505 30.2114 27.7882 30.2949 28.0201 30.5043C28.5204 30.956 29.1276 31.6772 30.1163 32.8637L30.8961 33.7994L30.8961 33.7994C31.772 34.8507 32.5616 35.7984 33.2992 36.4645C34.1017 37.1892 35.1125 37.8346 36.4445 37.8346C37.7765 37.8346 38.7873 37.1892 39.5898 36.4645C40.3274 35.7985 41.117 34.8507 41.9929 33.7994L41.9929 33.7994L46.8698 27.9471Z" fill="#C2867A" />
  <path d="M58.6667 13.3333C58.6667 17.7516 55.0849 21.3333 50.6667 21.3333C46.2484 21.3333 42.6667 17.7516 42.6667 13.3333C42.6667 8.91507 46.2484 5.33334 50.6667 5.33334C55.0849 5.33334 58.6667 8.91507 58.6667 13.3333Z" fill="#C2867A" />
</svg>