<svg width="64" height="64" viewBox="0 0 64 64" fill="none" xmlns="http://www.w3.org/2000/svg">
  <path d="M42.6666 16C42.6666 21.891 37.891 26.6667 32 26.6667C26.1089 26.6667 21.3333 21.891 21.3333 16C21.3333 10.109 26.1089 5.33334 32 5.33334C37.891 5.33334 42.6666 10.109 42.6666 16Z" fill="#C2867A" />
  <path fill-rule="evenodd" clip-rule="evenodd" d="M44 58.6667C39.6002 58.6667 37.4004 58.6667 36.0335 57.2998C34.6667 55.933 34.6667 53.7331 34.6667 49.3333C34.6667 44.9336 34.6667 42.7337 36.0335 41.3668C37.4004 40 39.6002 40 44 40C48.3998 40 50.5997 40 51.9665 41.3668C53.3334 42.7337 53.3334 44.9336 53.3334 49.3333C53.3334 53.7331 53.3334 55.933 51.9665 57.2998C50.5997 58.6667 48.3998 58.6667 44 58.6667ZM49.2481 47.3222C49.8556 46.7147 49.8556 45.7298 49.2481 45.1223C48.6406 44.5148 47.6557 44.5148 47.0482 45.1223L41.9259 50.2446L40.9518 49.2704C40.3443 48.6629 39.3594 48.6629 38.7519 49.2704C38.1444 49.8779 38.1444 50.8628 38.7519 51.4703L40.826 53.5444C41.4335 54.1519 42.4184 54.1519 43.0259 53.5444L49.2481 47.3222Z" fill="#C2867A" />
  <path opacity="0.5" d="M38.6064 58.4555C36.67 58.5941 34.4791 58.6667 32 58.6667C10.6667 58.6667 10.6667 53.2941 10.6667 46.6667C10.6667 40.0392 20.2179 34.6667 32 34.6667C39.6816 34.6667 46.415 36.9504 50.1713 40.3766C48.7947 40 46.8632 40 44 40C39.6002 40 37.4004 40 36.0335 41.3668C34.6667 42.7337 34.6667 44.9335 34.6667 49.3333C34.6667 53.7331 34.6667 55.933 36.0335 57.2998C36.6669 57.9332 37.4792 58.2731 38.6064 58.4555Z" fill="#C2867A" />
</svg>