<?xml version="1.0"?>
<svg xmlns="http://www.w3.org/2000/svg" xmlns:xlink="http://www.w3.org/1999/xlink" version="1.1" xml:space="preserve">
  <defs>

    <symbol id="whatsapp" width="100%" height="100%" viewBox="0 0 14 14" fill="none">
      <path fill-rule="evenodd" clip-rule="evenodd" d="M11.9601 2.03457C10.6441 0.723268 8.89389 0.000800961 7.02921 0C3.18705 0 0.0599585 3.11193 0.0584159 6.93692C0.0579464 8.15959 0.378864 9.35302 0.98891 10.4052L0 14L3.69528 13.0353C4.71344 13.588 5.85975 13.8793 7.02639 13.8797H7.02927C10.871 13.8797 13.9984 10.7674 14 6.94233C14.0007 5.08877 13.2762 3.34581 11.9601 2.03457ZM7.02927 12.7081H7.02693C5.98731 12.7077 4.96762 12.4297 4.0781 11.9044L3.86651 11.7795L1.67367 12.3519L2.25897 10.2241L2.12121 10.0059C1.54128 9.0879 1.23491 8.02683 1.23538 6.93726C1.23666 3.75811 3.83572 1.17167 7.03162 1.17167C8.57907 1.17221 10.0338 1.77273 11.1277 2.8627C12.2216 3.95261 12.8236 5.40128 12.823 6.942C12.8217 10.1214 10.2226 12.7081 7.02927 12.7081ZM10.2073 8.38953C10.0331 8.30283 9.17684 7.88346 9.01716 7.82559C8.85753 7.76786 8.74137 7.73889 8.62528 7.91243C8.50918 8.08597 8.17532 8.47637 8.07372 8.59211C7.97211 8.70772 7.8705 8.72227 7.6964 8.63543C7.52215 8.54873 6.961 8.36564 6.29569 7.77506C5.77793 7.31545 5.42837 6.74783 5.32677 6.57422C5.22516 6.40068 5.3159 6.3069 5.40316 6.22046C5.48149 6.14277 5.57733 6.01795 5.66445 5.91677C5.75157 5.81558 5.78055 5.74323 5.83863 5.62755C5.89671 5.51188 5.86767 5.41063 5.82407 5.32392C5.78055 5.23708 5.4322 4.38386 5.28706 4.03678C5.14568 3.69884 5.00209 3.74456 4.89519 3.73922C4.79371 3.73421 4.67749 3.73308 4.56133 3.73308C4.44523 3.73308 4.25657 3.77647 4.09688 3.95001C3.93726 4.12355 3.48731 4.54292 3.48731 5.39614C3.48731 6.24937 4.11137 7.07355 4.19849 7.18929C4.28554 7.30497 5.4267 9.0558 7.17387 9.8067C7.58936 9.98532 7.91383 10.0919 8.16681 10.1719C8.5841 10.3038 8.96377 10.2851 9.26383 10.2406C9.5985 10.1908 10.2943 9.82119 10.4395 9.4163C10.5846 9.01135 10.5846 8.66426 10.5411 8.59198C10.4975 8.51976 10.3814 8.47637 10.2073 8.38953Z" fill="currentColor" />

    </symbol>
    <symbol id="telegram" width="100%" height="100%" viewBox="0 0 15 14" fill="none">
      <path fill-rule="evenodd" clip-rule="evenodd" d="M1.14346 6.38103C5.06247 4.60331 7.67141 3.42206 8.98148 2.84898C12.7101 1.2233 13.4939 0.942604 13.9978 0.930908C14.1098 0.930908 14.3561 0.954299 14.5241 1.09465C14.6584 1.2116 14.692 1.36364 14.7144 1.4806C14.7368 1.59755 14.7592 1.84316 14.7368 2.03029C14.5353 4.25244 13.6619 9.64408 13.214 12.1235C13.0237 13.1761 12.6541 13.527 12.2958 13.5621C11.512 13.6323 10.9186 13.0241 10.1684 12.5095C8.98147 11.7025 8.32084 11.1996 7.16753 10.4043C5.83507 9.49204 6.69725 8.98913 7.45866 8.17045C7.66021 7.95993 11.0977 4.68518 11.1649 4.39279C11.1761 4.3577 11.1761 4.21735 11.0977 4.14718C11.0194 4.07701 10.9074 4.1004 10.8178 4.12379C10.6946 4.14718 8.81352 5.45708 5.15204 8.04179C4.61458 8.42775 4.1331 8.61488 3.69641 8.60318C3.21493 8.59148 2.29677 8.32249 1.60254 8.08857C0.762753 7.80788 0.0909229 7.65584 0.146909 7.16463C0.1805 6.90733 0.516415 6.65003 1.14346 6.38103Z" fill="currentColor" />


    </symbol>
    <symbol id="email" width="100%" height="100%" viewBox="0 0 56 56" fill="none">
      <path d="M4.66675 28.0002C4.66675 19.2006 4.66675 14.8008 7.40042 12.0672C10.1341 9.3335 14.5339 9.3335 23.3334 9.3335H32.6667C41.4663 9.3335 45.8661 9.3335 48.5997 12.0672C51.3334 14.8008 51.3334 19.2006 51.3334 28.0002C51.3334 36.7997 51.3334 41.1995 48.5997 43.9332C45.8661 46.6668 41.4663 46.6668 32.6667 46.6668H23.3334C14.5339 46.6668 10.1341 46.6668 7.40042 43.9332C4.66675 41.1995 4.66675 36.7997 4.66675 28.0002Z" stroke="currentColor" stroke-width="2" />
      <path d="M14 18.6665L19.0374 22.8644C23.3229 26.4356 25.4657 28.2212 28 28.2212C30.5343 28.2212 32.6771 26.4356 36.9626 22.8644L42 18.6665" stroke="currentColor" stroke-width="2" stroke-linecap="round" />

    </symbol>
    <symbol id="phone" width="100%" height="100%" viewBox="0 0 24 24" fill="none">
      <path d="M5 4H9L11 9L8.5 10.5C9.57096 12.6715 11.3285 14.429 13.5 15.5L15 13L20 15V19C20 19.5304 19.7893 20.0391 19.4142 20.4142C19.0391 20.7893 18.5304 21 18 21C14.0993 20.763 10.4202 19.1065 7.65683 16.3432C4.8935 13.5798 3.23705 9.90074 3 6C3 5.46957 3.21071 4.96086 3.58579 4.58579C3.96086 4.21071 4.46957 4 5 4" stroke="currentColor" stroke-width="1.6" stroke-linecap="round" stroke-linejoin="round" />
      <path d="M15 7C15.5304 7 16.0391 7.21071 16.4142 7.58579C16.7893 7.96086 17 8.46957 17 9" stroke="currentColor" stroke-width="1.6" stroke-linecap="round" stroke-linejoin="round" />
      <path d="M15 3C16.5913 3 18.1174 3.63214 19.2426 4.75736C20.3679 5.88258 21 7.4087 21 9" stroke="currentColor" stroke-width="1.6" stroke-linecap="round" stroke-linejoin="round" />

    </symbol>
    <symbol id="user" width="100%" height="100%" viewBox="0 0 24 24" fill="none">
      <path d="M12 11C14.2091 11 16 9.20914 16 7C16 4.79086 14.2091 3 12 3C9.79086 3 8 4.79086 8 7C8 9.20914 9.79086 11 12 11Z" stroke="currentColor" stroke-width="1.6" stroke-linecap="round" stroke-linejoin="round" />
      <path d="M6 21V19C6 17.9391 6.42143 16.9217 7.17157 16.1716C7.92172 15.4214 8.93913 15 10 15H14C15.0609 15 16.0783 15.4214 16.8284 16.1716C17.5786 16.9217 18 17.9391 18 19V21" stroke="currentColor" stroke-width="1.6" stroke-linecap="round" stroke-linejoin="round" />

    </symbol>
    <symbol id="menu" width="100%" height="100%" viewBox="0 0 28 28" fill="none">
      <path fill-rule="evenodd" clip-rule="evenodd" d="M24.2084 8.16663C24.2084 8.64988 23.8166 9.04163 23.3334 9.04163L4.66671 9.04163C4.18346 9.04163 3.79171 8.64988 3.79171 8.16663C3.79171 7.68338 4.18346 7.29163 4.66671 7.29163L23.3334 7.29163C23.8166 7.29163 24.2084 7.68338 24.2084 8.16663Z" fill="currentColor" />
      <path fill-rule="evenodd" clip-rule="evenodd" d="M24.2084 14C24.2084 14.4832 23.8166 14.875 23.3334 14.875L4.66671 14.875C4.18346 14.875 3.79171 14.4832 3.79171 14C3.79171 13.5168 4.18346 13.125 4.66671 13.125L23.3334 13.125C23.8166 13.125 24.2084 13.5168 24.2084 14Z" fill="currentColor" />
      <path fill-rule="evenodd" clip-rule="evenodd" d="M24.2084 19.8334C24.2084 20.3166 23.8166 20.7084 23.3334 20.7084L4.66671 20.7084C4.18346 20.7084 3.79171 20.3166 3.79171 19.8334C3.79171 19.3501 4.18346 18.9584 4.66671 18.9584L23.3334 18.9584C23.8166 18.9584 24.2084 19.3501 24.2084 19.8334Z" fill="currentColor" />

    </symbol>
    <symbol id="arrow-right" width="100%" height="100%" viewBox="0 0 20 20" fill="none">
      <path fill-rule="evenodd" clip-rule="evenodd" d="M11.2248 4.55806C11.4688 4.31398 11.8646 4.31398 12.1086 4.55806L17.1086 9.55806C17.3527 9.80214 17.3527 10.1979 17.1086 10.4419L12.1086 15.4419C11.8646 15.686 11.4688 15.686 11.2248 15.4419C10.9807 15.1979 10.9807 14.8021 11.2248 14.5581L15.1578 10.625H3.33337C2.9882 10.625 2.70837 10.3452 2.70837 10C2.70837 9.65482 2.9882 9.375 3.33337 9.375H15.1578L11.2248 5.44194C10.9807 5.19786 10.9807 4.80214 11.2248 4.55806Z" fill="currentColor" />

    </symbol>
    <symbol id="arrow-right-alt" width="100%" height="100%" viewBox="0 0 32 19" fill="none">
      <path fill-rule="evenodd" clip-rule="evenodd" d="M26.4833 9.93584H0V8.61106H26.4626C25.5887 8.19476 24.8301 7.67809 24.1629 7.05973C22.3987 5.42479 21.3458 3.14178 20.4255 0.361747L21.564 0C22.4707 2.73915 23.449 4.784 24.9854 6.2079C26.3522 7.47476 28.2191 8.30143 31.0311 8.61106H32V8.69484V9.86484V9.93584H31.1493C28.2707 10.2349 26.3707 11.0641 24.9849 12.3459C23.4489 13.7666 22.4707 15.8081 21.564 18.5471L20.4255 18.1853C21.3459 15.4051 22.3989 13.1251 24.1633 11.4933C24.8357 10.8714 25.6009 10.3528 26.4833 9.93584Z" fill="currentColor" />

    </symbol>
    <symbol id="arrow-left" width="100%" height="100%" viewBox="0 0 15 10" fill="none">
      <path d="M2 5L1.29289 4.29289L0.585786 5L1.29289 5.70711L2 5ZM14 6C14.5523 6 15 5.55228 15 5C15 4.44772 14.5523 4 14 4V6ZM5.29289 0.292893L1.29289 4.29289L2.70711 5.70711L6.70711 1.70711L5.29289 0.292893ZM1.29289 5.70711L5.29289 9.70711L6.70711 8.29289L2.70711 4.29289L1.29289 5.70711ZM2 6H14V4H2V6Z" fill="currentColor" />
    </symbol>
    <symbol id="arrow-left-alt" width="100%" height="100%" viewBox="0 0 32 19" fill="none">
      <path fill-rule="evenodd" clip-rule="evenodd" d="M5.51674 9.93584H32V8.61106H5.53737C6.41131 8.19476 7.16994 7.67809 7.83714 7.05973C9.60126 5.42479 10.6542 3.14178 11.5745 0.361747L10.436 0C9.52926 2.73915 8.55097 4.784 7.01463 6.2079C5.64777 7.47476 3.78091 8.30143 0.968855 8.61106H0V8.69484V9.86484V9.93584H0.850685C3.72931 10.2349 5.62931 11.0641 7.01514 12.3459C8.55114 13.7666 9.52926 15.8081 10.436 18.5471L11.5745 18.1853C10.6541 15.4051 9.60108 13.1251 7.83674 11.4933C7.16428 10.8714 6.39908 10.3528 5.51674 9.93584Z" fill="currentColor" />

    </symbol>
    <symbol id="gal-ochka" width="100%" height="100%" viewBox="0 0 12 10" fill="none">
      <path d="M6.23497 8.79946C5.9649 9.16602 5.54433 9.3913 5.0896 9.41369C4.63487 9.43632 4.19445 9.25304 3.88975 8.91464L1.15929 5.88456C0.725328 5.40328 0.763876 4.6614 1.24515 4.22744C1.72689 3.79348 2.46831 3.83226 2.90227 4.31377L4.83407 6.45771C4.8627 6.48956 4.90425 6.50664 4.94695 6.50456C4.98988 6.50249 5.02912 6.48102 5.05475 6.44686L9.02546 1.0614C9.40979 0.539728 10.1443 0.428699 10.6662 0.813259C11.1876 1.19782 11.2984 1.93232 10.9139 2.45376L6.23497 8.79946Z" fill="currentColor" />
    </symbol>
    <symbol id="to-right" width="100%" height="100%" viewBox="0 0 8 14" fill="none">
      <path d="M5.63663 7.00019L1.15148 2.51504C0.7935 2.15706 0.7935 1.57666 1.15148 1.21868C1.50946 0.8607 2.08986 0.8607 2.44784 1.21868L7.58118 6.35201C7.93916 6.70999 7.93916 7.29039 7.58118 7.64838L2.44784 12.7817C2.08986 13.1397 1.50946 13.1397 1.15148 12.7817C0.7935 12.4237 0.7935 11.8433 1.15148 11.4853L5.63663 7.00019Z" fill="currentColor" />
    </symbol>
    <symbol id="to-left" width="100%" height="100%" viewBox="0 0 8 14" fill="none">
      <path d="M2.36337 7.00019L6.84852 2.51504C7.2065 2.15706 7.2065 1.57666 6.84852 1.21868C6.49054 0.8607 5.91014 0.8607 5.55216 1.21868L0.418823 6.35201C0.0608425 6.70999 0.0608425 7.29039 0.418823 7.64838L5.55216 12.7817C5.91014 13.1397 6.49054 13.1397 6.84852 12.7817C7.2065 12.4237 7.2065 11.8433 6.84852 11.4853L2.36337 7.00019Z" fill="currentColor" />
    </symbol>
    <symbol id="play" width="100%" height="100%" viewBox="0 0 24 24" fill="none">
      <path d="M19.5761 9.35258C21.4746 10.5065 21.4746 13.4935 19.5761 14.6474L8.11276 21.6145C6.26758 22.736 4 21.2763 4 18.9671L4 5.0329C4 2.72368 6.26758 1.26402 8.11276 2.38548L19.5761 9.35258Z" fill="currentColor" />
    </symbol>
    <symbol id="cross" width="100%" height="100%" viewBox="0 0 28 28" fill="none">
      <path d="M19.6875 8.3125L8.3125 19.6875M8.3125 8.3125L19.6875 19.6875" stroke="currentColor" stroke-width="2" stroke-linecap="round" stroke-linejoin="round" />

    </symbol>

    <!--  -->
    <!--  -->
    <!--  -->
  </defs>
</svg>