<svg width="220" height="55" viewBox="0 0 220 55" fill="none" xmlns="http://www.w3.org/2000/svg">
<path fill-rule="evenodd" clip-rule="evenodd" d="M213.655 0.485905C211.227 1.18656 209.612 3.77898 210.03 6.32469C210.199 7.41071 210.617 8.27485 211.362 9.0806C213.169 11.0308 216.038 11.2526 218.149 9.58274C218.782 9.0806 219.505 7.98291 219.764 7.13045C220.645 4.19937 218.974 1.11649 216.139 0.450872C215.473 0.287386 214.298 0.310741 213.655 0.485905ZM216.162 1.60695C218.77 2.45942 219.787 5.53062 218.24 7.86613C216.873 9.90971 214.073 10.2133 212.288 8.5084C209.996 6.33637 210.899 2.54116 213.948 1.53689C214.615 1.31501 215.36 1.33837 216.162 1.60695ZM212.763 5.39051V8.14641H213.44H214.118V7.09543V6.04445H214.445C214.919 6.04445 215.258 6.3831 215.687 7.31731L216.083 8.14641H216.794C217.189 8.14641 217.506 8.12306 217.506 8.08803C217.506 7.85448 216.444 5.916 216.241 5.76419C216.112 5.66744 216.05 5.62079 216.05 5.57398C216.05 5.53038 216.103 5.48665 216.207 5.40218C216.331 5.30876 216.467 5.22702 216.501 5.22702C216.636 5.22702 216.828 4.60811 216.828 4.16436C216.828 3.5688 216.591 3.1017 216.184 2.89151C215.981 2.78641 215.326 2.71634 214.321 2.68131L212.763 2.6346V5.39051ZM215.258 3.82571C215.405 3.90745 215.473 4.07094 215.473 4.3512C215.473 4.84166 215.145 5.11024 214.547 5.11024H214.118V4.40959V3.70894H214.581C214.829 3.70894 215.134 3.76732 215.258 3.82571ZM86.9006 16.0287C88.38 10.1432 93.1909 5.92765 99.2101 5.23867C99.707 5.19196 100.509 5.13357 100.994 5.12189L101.864 5.11021V7.17715V9.25575L100.757 9.27911C95.8222 9.39588 92.2762 12.5255 91.2372 17.6636C91.0113 18.7613 91.0678 21.4238 91.3388 22.7434C92.1745 26.8539 94.5348 29.7499 98.0582 30.9877C100.836 31.9686 105.094 31.4431 107.149 29.8784L107.624 29.5163V26.7137V23.9111H104.631H101.638V21.8091V19.7072H106.777H111.915V25.5343V31.3614L111.136 32.1204C108.73 34.4676 104.653 35.7639 100.373 35.5537C96.3981 35.3551 93.2022 33.9305 90.5709 31.1629C86.991 27.4027 85.5454 21.4355 86.9006 16.0287ZM172.277 5.6356C166.912 7.08362 163.197 11.2992 162.102 17.1964C161.797 18.8196 161.819 21.9375 162.158 23.6775C163.321 29.7848 167.409 34.0471 173.18 35.2032C173.903 35.3434 174.761 35.4017 176.173 35.4017C178.477 35.4017 179.753 35.1682 181.695 34.4091C182.779 33.9888 183.965 33.3348 183.965 33.148C183.965 33.1129 183.683 32.2371 183.333 31.2095L182.712 29.3411L181.503 29.9483C176.286 32.6108 170.831 31.373 168.245 26.9355C167.669 25.9546 167.161 24.565 166.879 23.2104C166.585 21.7623 166.562 19.0415 166.856 17.6635C167.567 14.2069 169.228 11.7313 171.768 10.3767C172.232 10.1198 172.83 9.85121 173.101 9.76946L173.575 9.62933V7.48066C173.575 5.8458 173.542 5.34366 173.44 5.34366C173.361 5.35534 172.841 5.48379 172.277 5.6356ZM0 35.1216V20.3495V5.57738H3.89613H7.79226V7.56257V9.54775H6.04182H4.29139V13.6349V17.7221H7.62286H10.9543V19.7072V21.6924H7.62286H4.29139V26.4219V31.1513H9.0345H13.7776V33.1365V35.1216H6.88881H0ZM18.1819 15.3749V25.1957H20.4067H22.6201L22.5524 20.6531L22.4846 16.0989L25.7258 19.8007C26.2978 20.4559 27.0707 21.3403 27.9488 22.3452L27.9519 22.3487C29.812 24.4773 32.1435 27.1453 34.0375 29.3179C38.4644 34.386 39.1533 35.1216 39.4356 35.1216H39.7518V20.3495V5.57738H37.6061H35.4491L35.483 15.2114L35.5169 24.8454L35.2685 24.5768C35.1442 24.4367 31.3949 20.116 26.9454 14.9778C20.0453 7.01372 18.8031 5.63577 18.5207 5.60073L18.1819 5.5657V15.3749ZM45.8501 35.1216V20.3495V5.57738H52.1178H58.3855V7.56257V9.54775H54.2635H50.1415V13.6349V17.7221H53.4165H56.6915V19.7072V21.6924H53.4165H50.1415V26.4219V31.1513H51.6096H53.0777V33.1365V35.1216H49.4639H45.8501ZM64.032 7.42244V9.29085L68.4702 9.33756C72.5357 9.38427 72.9648 9.40763 73.7667 9.64118C75.3364 10.0849 76.477 10.879 77.0755 11.9417C77.4256 12.5489 77.6967 13.7283 77.6967 14.6275C77.6967 16.636 76.6464 18.7147 75.2348 19.5087C74.1506 20.116 73.1229 20.3145 70.6159 20.3729L68.3234 20.4429V17.2082V13.9852H66.1777H64.032V24.5534V35.1216H66.1777H68.3234V29.5748V24.0279H70.4465H72.5696L75.4268 29.5748L78.2839 35.1216H80.8023H83.3319L82.3043 33.2766C82.1566 33.0139 81.9433 32.6339 81.6855 32.1747L81.6781 32.1614L81.6736 32.1535L81.668 32.1435C80.9404 30.8471 79.8677 28.9362 78.9163 27.251L76.5674 23.047L77.3692 22.6033C79.5713 21.3655 80.9378 19.6372 81.5589 17.29C81.9203 15.9354 81.9203 13.1328 81.5589 11.8249C81.1749 10.4353 80.7006 9.60614 79.7294 8.61355C78.7582 7.62096 77.6854 6.96701 76.0592 6.40649C74.1167 5.72919 73.5408 5.6708 68.5831 5.61241L64.032 5.55403V7.42244ZM116.771 35.1216V20.3495V5.57738H120.385H123.999V7.56257V9.54775H122.53H121.062V13.6349V17.7221H124.337H127.612V19.7072V21.6924H124.337H121.062V26.4219V31.1513H125.805H130.549V33.1365V35.1216H123.66H116.771ZM134.953 20.3495V35.1216H139.244H143.536V33.1365V31.1513H141.446H139.357V18.3643V5.57738H137.155H134.953V20.3495ZM152.231 35.1216V20.3495V5.57738H154.434H156.636V20.3495V35.1216H154.434H152.231ZM198.353 5.95106C198.161 6.33642 185.015 34.7013 184.902 34.9815C184.857 35.0983 185.354 35.1216 187.308 35.0983L189.77 35.0633L190.775 32.6694C191.328 31.3498 193.169 27.0641 194.863 23.1521L195.069 22.6756L195.07 22.6725L195.086 22.6357C196.692 18.9166 198.124 15.598 198.319 15.118C198.522 14.6275 198.725 14.2188 198.759 14.2188C198.804 14.2188 199.132 14.9428 199.493 15.8186C199.855 16.7061 200.735 18.773 201.447 20.4079C202.147 22.0428 202.757 23.4557 202.791 23.5258C202.836 23.6426 202.395 23.6776 200.803 23.6776H198.759V25.7796V27.8815H201.684H204.598L204.925 28.6056C205.095 29.0143 205.783 30.6258 206.461 32.2023L207.669 35.0633L210.21 35.0983L212.751 35.1216L211.407 32.2373C211.198 31.787 210.803 30.938 210.276 29.8051L210.225 29.6964L210.217 29.6792L210.192 29.6253L210.182 29.6029C208.829 26.6951 206.674 22.063 204.541 17.4885L204.07 16.4762L204.07 16.476C199.778 7.24393 198.966 5.49615 198.606 5.58484C198.522 5.60555 198.463 5.72639 198.39 5.87546C198.378 5.9 198.365 5.92531 198.353 5.95106ZM123.287 45.5146C122.711 45.5146 122.418 44.6388 122.892 44.3001C123.298 43.9965 123.886 44.3235 123.886 44.8373C123.886 45.0825 123.502 45.5146 123.287 45.5146ZM97.6856 45.7482V47.2663L97.1774 46.8693C95.969 45.9117 94.1734 46.2854 93.349 47.6633C92.9199 48.3757 92.807 49.5551 93.1006 50.3492C93.3152 50.9214 93.9024 51.6104 94.4219 51.8906C95.2689 52.3344 96.6128 52.1942 97.2565 51.5753C97.4371 51.3885 97.6178 51.2367 97.6404 51.2367C97.663 51.2367 97.6856 51.4235 97.6856 51.6454C97.6856 52.0424 97.6969 52.0541 98.1373 52.0541H98.5891V48.1421V44.2301H98.1373H97.6856V45.7482ZM96.4095 47.3948C96.9064 47.5816 97.4259 48.1772 97.5727 48.7143C97.8663 49.8003 97.1209 51.0148 96.082 51.1783C95.3818 51.2834 94.851 51.0965 94.3654 50.536C93.9363 50.0456 93.7782 49.4734 93.8911 48.8778C94.117 47.7217 95.3592 46.986 96.4095 47.3948ZM117.562 45.8183C117.562 45.2227 117.573 45.1994 117.934 45.0709C118.567 44.8607 118.578 44.8724 118.578 45.6898V46.4489H119.255H119.933V46.916V47.3831H119.255H118.578V49.1113C118.578 50.3025 118.623 50.8863 118.713 50.9798C118.792 51.0615 119.097 51.1199 119.391 51.1199H119.933V51.587V52.0541H119.323C118.544 52.0541 118.081 51.8789 117.821 51.4936C117.652 51.225 117.607 50.8747 117.584 49.2748L117.539 47.3831H117.042H116.545V46.916V46.4489H117.053H117.562V45.8183ZM73.6764 46.4489C73.4731 46.519 73.1569 46.7292 72.9536 46.916C72.7504 47.1145 72.5697 47.2663 72.5471 47.2663C72.5245 47.2663 72.5019 47.0795 72.5019 46.8576C72.5019 46.4606 72.4906 46.4489 72.0502 46.4489H71.5984V50.3609V54.2729H72.0502H72.5019V52.7548C72.5019 51.7856 72.5471 51.2367 72.6148 51.2367C72.6826 51.2367 72.7616 51.3185 72.7955 51.4119C72.8294 51.5053 73.1343 51.7155 73.4731 51.8907C74.0039 52.1593 74.1846 52.1943 74.7718 52.1359C75.664 52.0542 76.3867 51.5987 76.8498 50.8397C77.1547 50.3142 77.1885 50.1741 77.1885 49.2515C77.1885 48.329 77.1547 48.1889 76.8498 47.6634C76.3642 46.8576 75.6188 46.4139 74.7154 46.3672C74.3427 46.3555 73.8684 46.3905 73.6764 46.4489ZM75.3252 47.5233C75.9124 47.8386 76.3416 48.5626 76.3416 49.2632C76.3416 49.9172 75.9011 50.6528 75.3252 50.9681C74.7492 51.2834 74.3427 51.3068 73.778 51.0616C72.9762 50.7112 72.5922 50.1274 72.5922 49.2515C72.5922 47.7101 73.9926 46.8343 75.3252 47.5233ZM81.4122 46.8693C81.5816 46.6941 81.8752 46.5072 82.0559 46.4489C82.6318 46.2737 82.6657 46.2971 82.6657 46.8342C82.6657 47.3247 82.6544 47.3364 82.1801 47.4648C81.9204 47.5466 81.5816 47.7451 81.4235 47.9086C81.1524 48.2122 81.1411 48.2822 81.1073 50.139L81.0734 52.0541H80.5652H80.0683V49.2515V46.4489H80.5765C81.0734 46.4489 81.0847 46.4605 81.0847 46.8225V47.1962L81.4122 46.8693ZM86.5731 46.4955C85.4438 46.9276 84.7888 47.9319 84.7888 49.2397C84.7888 49.9054 84.8453 50.1623 85.105 50.6527C86.1666 52.673 88.9786 52.6846 90.0401 50.6644C90.2886 50.1973 90.345 49.9521 90.345 49.2281C90.345 48.4574 90.2999 48.2939 89.9837 47.7333C89.4642 46.8458 88.7866 46.4371 87.7815 46.3787C87.2846 46.3437 86.8555 46.3904 86.5731 46.4955ZM88.38 47.4881C89.035 47.7917 89.3625 48.3289 89.4077 49.123C89.4642 49.9754 89.1367 50.5827 88.4252 50.9797C87.5218 51.4702 86.3247 51.0731 85.8843 50.1272C85.6245 49.5317 85.6923 48.6092 86.0536 48.0837C86.3473 47.6633 87.07 47.2662 87.5782 47.2662C87.7702 47.2662 88.1203 47.3713 88.38 47.4881ZM109.498 47.8735C109.814 47.2078 110.311 46.7524 110.978 46.4955C111.249 46.3904 111.689 46.3437 112.175 46.3787C113.044 46.4254 113.812 46.8342 114.174 47.4414L114.388 47.8034L113.993 48.0253L113.598 48.2471L113.349 47.9318C113.067 47.5698 112.412 47.2662 111.937 47.2662C111.384 47.2662 110.661 47.745 110.368 48.3172C109.916 49.193 110.074 50.0572 110.808 50.7228C111.531 51.3767 112.559 51.3417 113.281 50.641L113.654 50.279L114.027 50.4776C114.23 50.5943 114.399 50.7345 114.399 50.7812C114.399 50.9447 113.62 51.692 113.247 51.8905C112.784 52.1358 111.745 52.2292 111.181 52.0657C109.521 51.6103 108.696 49.5434 109.498 47.8735ZM128.392 46.484C127.725 46.7409 127.285 47.1263 126.935 47.7686C126.641 48.2941 126.596 48.4926 126.596 49.2516C126.596 49.999 126.641 50.2092 126.924 50.7113C128.234 53.0702 131.655 52.4396 132.141 49.7654C132.355 48.6094 131.791 47.3131 130.82 46.7293C130.199 46.3556 129.035 46.2388 128.392 46.484ZM130.165 47.4883C130.786 47.7802 131.147 48.3174 131.204 49.0765C131.294 50.1975 130.582 51.085 129.51 51.2018C128.855 51.2718 128.098 50.8631 127.748 50.2325C127.409 49.6253 127.443 48.6561 127.838 48.0955C128.132 47.6635 128.855 47.2664 129.363 47.2664C129.555 47.2664 129.905 47.3715 130.165 47.4883ZM136.206 46.9043C136.331 46.7758 136.602 46.589 136.794 46.5072C137.629 46.1336 138.86 46.4372 139.346 47.1262C139.685 47.6283 139.809 48.4574 139.809 50.3725V52.0541H139.301H138.793V50.0689V48.0837L138.476 47.7217C138.047 47.2313 137.234 47.1262 136.669 47.4998C136.071 47.8852 135.969 48.3056 135.969 50.3025V52.0541H135.461H134.953V49.2515V46.4489H135.461C135.947 46.4489 135.969 46.4605 135.969 46.7992V47.1495L136.206 46.9043ZM101.638 48.5741C101.638 50.5709 101.661 50.7461 101.898 51.1665C102.508 52.2758 104.247 52.5094 105.128 51.5985L105.365 51.3533V51.7036C105.365 52.0423 105.388 52.054 105.873 52.054H106.381V49.2514V46.4487H105.873H105.365V48.2821C105.365 49.9286 105.342 50.1739 105.139 50.5125C104.687 51.2832 103.49 51.4584 102.892 50.8395C102.598 50.5363 102.598 50.5126 102.564 48.5005L102.564 48.4923L102.53 46.4487H102.079H101.638V48.5741ZM122.756 52.0541V49.2515V46.4489H123.208H123.66V49.2515V52.0541H123.208H122.756Z" fill="white"/>
</svg>
