<svg width="76" height="23" viewBox="0 0 76 23" fill="none" xmlns="http://www.w3.org/2000/svg">
<g clip-path="url(#clip0_162_973)">
<path d="M27.1643 9.23115V6.67422C27.1643 3.27499 25.2621 1.25952 22.043 1.25952C18.8532 1.25952 17.0096 3.21483 17.0096 6.67422V7.12544C17.0096 10.1637 17.9168 11.7279 20.1994 12.6605L21.487 13.1418C23.7111 14.0743 24.2964 14.8263 24.2964 16.4507V17.7142C24.2964 19.3386 23.477 20.3012 22.0723 20.3012C20.6969 20.3012 19.8775 19.3386 19.8775 17.7142V14.9467H16.951V17.5036C16.951 20.9329 18.7947 22.9183 22.043 22.9183C25.2914 22.9183 27.2228 20.9028 27.2228 17.5036V16.9321C27.2228 13.8336 26.3449 12.3596 23.9745 11.4271L22.8039 10.9759C20.492 10.0133 19.936 9.26124 19.936 7.63683V6.46364C19.936 4.83924 20.7262 3.87662 22.0723 3.87662C23.4185 3.87662 24.2379 4.83924 24.2379 6.46364V9.23115H27.1643ZM37.683 1.56034H28.0258V4.17744H31.3912V22.6175H34.3176V4.17744H37.683V1.56034ZM38.8721 1.56034V22.6175H43.7593C46.7443 22.6175 48.9683 21.1134 48.9683 17.4134V6.76446C48.9683 3.0945 46.7443 1.56034 43.7593 1.56034H38.8721ZM41.7986 4.17744H43.73C44.9591 4.17744 46.0126 4.77907 46.0126 6.73438V17.4434C46.0126 19.3987 44.9591 20.0004 43.73 20.0004H41.7986V4.17744ZM53.4293 1.53026H50.5029V22.6175H53.4293V13.4125H53.8975L57.6141 22.6175H60.7454L56.2972 12.0889L60.2772 1.53026H57.1459L53.8975 10.7653H53.4293V1.53026ZM61.7628 1.56034V22.6175H64.6892V1.56034H61.7628ZM75.378 1.56034H65.7208V4.17744H69.0862V22.6175H72.0126V4.17744H75.378V1.56034Z" fill="white"/>
<path d="M5.6986 22.1636L5.53485 22.6174H6.00575H7.69766H7.92554L8.0048 22.3978L15.3761 1.96922L15.5398 1.51538H15.069H13.3771H13.1492L13.0699 1.73501L5.6986 22.1636Z" fill="white" stroke="white" stroke-width="0.793103"/>
<path d="M0.6756 22.1636L0.511841 22.6174H0.982739H2.67466H2.90254L2.98179 22.3978L10.3531 1.96922L10.5169 1.51538H10.046H8.35405H8.12616L8.04691 1.73501L0.6756 22.1636Z" fill="white" stroke="white" stroke-width="0.793103"/>
</g>
<defs>
<clipPath id="clip0_162_973">
<rect width="76" height="22" fill="white" transform="translate(0 0.954102)"/>
</clipPath>
</defs>
</svg>
